<svg xmlns="http://www.w3.org/2000/svg" viewBox="0 0 120 120" fill="none">
  <!-- Outer ring - industrial steel -->
  <circle cx="60" cy="60" r="56" stroke="#3d5a80" stroke-width="2" fill="#141c27"/>
  <!-- Inner ring -->
  <circle cx="60" cy="60" r="46" stroke="#2a3d52" stroke-width="1" fill="none"/>

  <!-- Flame / heat symbol -->
  <!-- Main flame body -->
  <path d="M60 22 C56 30 48 36 46 46 C44 54 48 60 52 64 C50 58 52 52 56 50 C54 58 56 66 60 70 C64 66 66 58 64 50 C68 52 70 58 68 64 C72 60 76 54 74 46 C72 36 64 30 60 22Z" fill="#e85d04"/>
  <!-- Inner flame highlight -->
  <path d="M60 32 C58 38 54 42 53 48 C52 53 54 57 56 59 C55 55 56 51 58 49 C57 54 58 60 60 63 C62 60 63 54 62 49 C64 51 65 55 64 59 C66 57 68 53 67 48 C66 42 62 38 60 32Z" fill="#f97316"/>
  <!-- Core flame -->
  <path d="M60 42 C59 45 57 47 57 50 C57 52 58 54 59 55 C58.5 53 59 51 60 50 C61 51 61.5 53 61 55 C62 54 63 52 63 50 C63 47 61 45 60 42Z" fill="#ffd700" opacity="0.9"/>

  <!-- Heat wave lines below flame -->
  <path d="M46 78 Q60 72 74 78" stroke="#e85d04" stroke-width="2" stroke-linecap="round" fill="none"/>
  <path d="M50 84 Q60 80 70 84" stroke="#e85d04" stroke-width="1.5" stroke-linecap="round" fill="none" opacity="0.6"/>

  <!-- ų monogram -->
  <text x="60" y="100" text-anchor="middle" font-family="system-ui,-apple-system,sans-serif" font-weight="900" font-size="13" fill="#e8edf2" letter-spacing="1">ųZMAKSAN</text>
</svg>
